<svg width="" height="" viewBox="0 0 129 16" fill="none" xmlns="http://www.w3.org/2000/svg">
<path d="M0.884943 13H3.03764V8.79403H7.40767V13H9.5554V2.81818H7.40767V7.01918H3.03764V2.81818H0.884943V13ZM13.3303 13H20.2109V11.2251H15.483V8.79403H19.8381V7.01918H15.483V4.59304H20.1911V2.81818H13.3303V13ZM25.6575 13L26.4132 10.6783H30.0872L30.8429 13H33.1497L29.6397 2.81818H26.8656L23.3507 13H25.6575ZM26.96 8.99787L28.2129 5.14489H28.2924L29.5453 8.99787H26.96ZM36.3752 13H42.8929V11.2251H38.5279V2.81818H36.3752V13ZM44.6593 4.59304H47.7765V13H49.9043V4.59304H53.0215V2.81818H44.6593V4.59304ZM56.3986 13H58.5513V8.79403H62.9213V13H65.0691V2.81818H62.9213V7.01918H58.5513V2.81818H56.3986V13ZM77.8276 6.38281C77.5442 4.03125 75.7644 2.67898 73.4078 2.67898C70.7182 2.67898 68.665 4.57812 68.665 7.90909C68.665 11.2301 70.6834 13.1392 73.4078 13.1392C76.0179 13.1392 77.5939 11.4041 77.8276 9.52983L75.65 9.51989C75.4462 10.6087 74.5911 11.2351 73.4426 11.2351C71.8965 11.2351 70.8475 10.0866 70.8475 7.90909C70.8475 5.79119 71.8816 4.5831 73.4576 4.5831C74.6358 4.5831 75.486 5.2642 75.65 6.38281H77.8276ZM82.9348 13L83.6905 10.6783H87.3645L88.1202 13H90.427L86.9171 2.81818H84.1429L80.628 13H82.9348ZM84.2374 8.99787L85.4902 5.14489H85.5698L86.8226 8.99787H84.2374ZM93.6525 13H95.8052V9.39062H97.3762L99.3052 13H101.682L99.519 9.04261C100.677 8.54545 101.319 7.53622 101.319 6.14418C101.319 4.12074 99.9814 2.81818 97.6696 2.81818H93.6525V13ZM95.8052 7.66051V4.57812H97.2569C98.4998 4.57812 99.1014 5.12997 99.1014 6.14418C99.1014 7.15341 98.4998 7.66051 97.2669 7.66051H95.8052ZM104.84 13H111.721V11.2251H106.993V8.79403H111.348V7.01918H106.993V4.59304H111.701V2.81818H104.84V13Z" fill="white"/>
<path d="M120.443 2.36364H117.733L120.352 8.18182L115.733 14H118.602L121.648 10.0284H121.739L123.466 14H126.244L123.591 8.18182L128.097 2.36364H125.239L122.216 6.32955H122.125L120.443 2.36364Z" fill="#96E22C"/>
</svg>
